<?xml version="1.0" encoding="UTF-8" standalone="no"?>
<svg xmlns="http://www.w3.org/2000/svg" viewBox="0 0 1024 1024" width="1024" height="1024">
<g transform="translate(0,1024) scale(0.1,-0.1)" stroke="none">
<g fill="#F0EFEA">
<path d="M4915 8966 c-110 -46 -567 -235 -1015 -421 -448 -185 -1008 -417
-1245 -515 -236 -98 -468 -194 -515 -213 l-85 -35 -3 -1619 c-3 -1641 -1
-1747 34 -1953 66 -388 232 -769 475 -1092 192 -255 493 -560 823 -833 447
-370 1069 -771 1633 -1054 l103 -51 141 71 c861 431 1731 1070 2233 1639 409
463 632 950 685 1494 7 73 11 655 11 1753 l0 1643 -37 16 c-48 20 -420 174
-758 314 -858 355 -2177 901 -2218 919 -27 12 -52 21 -55 21 -4 0 -97 -38
-207 -84z m390 -220 c99 -40 284 -116 410 -169 273 -113 1051 -435 1250 -517
266 -109 531 -219 770 -319 l240 -99 3 -1564 c3 -1700 3 -1695 -53 -1943 -135
-598 -478 -1080 -1190 -1675 -411 -343 -951 -699 -1483 -976 l-132 -69 -103
54 c-557 294 -1086 640 -1492 975 -337 279 -606 551 -791 798 -265 356 -426
763 -463 1178 -17 179 -15 3216 2 3223 6 3 147 61 312 130 165 69 379 157 475
197 96 40 292 121 435 180 143 59 350 145 460 190 110 45 279 115 375 155 96
40 265 110 375 155 110 45 245 102 300 125 55 24 105 44 110 44 6 1 91 -32
190 -73z"/>
<path d="M5058 8614 c-77 -41 -75 -169 2 -209 60 -31 137 -10 165 45 57 110
-58 223 -167 164z"/>
<path d="M2491 7552 c-74 -37 -90 -135 -32 -193 77 -77 208 -23 205 86 -1 51
-25 88 -69 109 -42 20 -62 20 -104 -2z"/>
<path d="M7643 7554 c-97 -48 -87 -194 17 -225 139 -42 222 145 97 221 -39 24
-71 25 -114 4z"/>
<path d="M2765 3766 c-44 -20 -67 -50 -72 -98 -13 -119 134 -179 212 -87 47
57 26 152 -41 184 -39 18 -60 18 -99 1z"/>
<path d="M7380 3763 c-21 -11 -42 -33 -54 -56 -59 -121 98 -232 193 -136 97
96 -18 254 -139 192z"/>
<path d="M5074 1860 c-11 -4 -33 -23 -48 -41 -24 -29 -28 -39 -24 -81 6 -57
35 -93 85 -107 104 -29 189 80 138 178 -24 48 -98 73 -151 51z"/>
</g>
<g fill="#12A26F">
<path d="M5255 7101 c-110 -27 -356 -85 -547 -129 l-348 -81 -138 -143 c-76
-79 -274 -286 -440 -462 -290 -307 -301 -320 -311 -370 -6 -28 -44 -227 -85
-443 l-75 -391 25 -159 c13 -87 39 -251 57 -365 l33 -207 68 -98 c37 -54 122
-177 189 -273 67 -97 169 -244 227 -327 l105 -152 110 -50 c61 -27 266 -121
457 -209 l348 -160 242 39 c134 21 362 57 508 80 l265 43 50 46 c278 255 742
698 747 714 8 24 188 954 188 973 0 18 -460 835 -484 860 -6 7 -205 75 -441
151 l-430 138 -5 510 -5 509 -55 2 c-36 1 -124 -15 -255 -46z m156 -298 c1
-93 3 -283 5 -424 l3 -256 -320 -167 c-176 -91 -323 -167 -328 -169 -9 -2
-367 249 -376 264 -3 4 1 68 10 141 9 73 27 229 40 347 14 118 26 215 28 216
1 1 133 32 292 69 160 37 362 84 450 106 88 21 168 39 178 39 15 1 17 -14 18
-166z m-1141 -443 c-15 -129 -31 -269 -34 -310 -7 -74 -6 -75 21 -95 293 -209
429 -308 431 -316 4 -10 -163 -406 -180 -426 -10 -13 -311 -18 -433 -7 l-71 6
-178 355 -177 355 73 77 c40 42 185 194 322 339 137 144 250 261 252 260 1 -2
-10 -109 -26 -238z m1503 -461 c340 -108 349 -111 340 -119 -4 -4 -75 -27
-158 -51 -92 -26 -158 -51 -170 -64 -12 -11 -63 -87 -115 -169 l-94 -149 -80
6 c-44 4 -83 10 -86 14 -4 5 -15 58 -25 120 -18 112 -18 113 3 160 42 96 152
323 157 323 3 0 105 -32 228 -71z m-503 -138 l-63 -130 26 -153 26 -153 -37
-33 c-64 -57 -63 -57 -138 4 -38 31 -72 62 -76 69 -9 16 -87 319 -83 324 10
10 400 209 404 206 2 -3 -24 -63 -59 -134z m-1530 -362 c80 -160 153 -303 162
-320 l18 -29 289 0 c160 0 292 -4 295 -8 7 -12 56 -250 56 -273 0 -28 -368
-421 -388 -415 -10 2 -149 26 -310 53 -224 36 -293 51 -296 63 -3 8 -25 146
-51 307 l-46 291 20 109 c11 59 36 191 56 291 19 101 35 193 35 203 0 10 3 19
8 19 4 -1 72 -131 152 -291z m2700 144 c42 -76 109 -195 148 -265 40 -70 72
-129 72 -132 0 -5 -118 45 -276 117 l-99 46 -230 -79 c-126 -44 -232 -80 -235
-80 -3 0 -29 27 -58 60 l-53 60 88 140 c66 105 94 142 113 147 14 3 120 34
235 68 116 34 212 61 214 59 2 -2 38 -65 81 -141z m-1595 -165 l28 -108 93
-75 c52 -42 94 -82 94 -90 0 -8 -5 -36 -11 -63 l-10 -49 -60 -7 -60 -6 -125
86 c-68 48 -124 92 -124 98 0 21 134 336 141 328 3 -4 18 -55 34 -114z m783
-256 c93 -99 90 -92 97 -237 l5 -130 -77 -109 c-61 -86 -86 -112 -113 -122
-19 -7 -86 -30 -148 -52 l-112 -40 -87 24 c-47 13 -88 25 -90 28 -3 2 31 31
74 63 46 34 86 74 98 96 l20 37 67 -2 c66 -2 67 -1 123 46 81 70 103 103 111
167 8 73 -3 83 -85 73 -59 -6 -61 -7 -61 -36 0 -33 -65 -102 -88 -93 -8 3 -31
8 -53 11 -29 5 -49 18 -79 50 -43 47 -43 45 -16 152 9 35 24 54 76 98 l65 54
105 -5 105 -5 63 -68z m791 -43 c75 -34 181 -82 236 -107 55 -25 102 -46 104
-48 4 -3 -119 -647 -125 -653 -7 -7 -12 1 -123 209 l-109 204 -248 63 c-137
35 -252 67 -256 71 -4 4 -10 48 -14 97 l-6 90 193 67 c107 36 198 67 203 67 5
1 70 -27 145 -60z m-1626 -200 l92 -61 90 12 90 11 48 -50 c57 -60 56 -64 -42
-133 -36 -25 -83 -59 -105 -75 l-38 -28 -102 109 c-101 108 -102 110 -119 185
-19 83 -20 91 -12 91 3 0 47 -27 98 -61z m1256 -265 c97 -25 193 -50 213 -55
39 -10 46 -21 247 -400 l62 -117 -271 -253 c-149 -140 -275 -255 -280 -257 -6
-2 -8 9 -5 25 3 15 17 132 31 260 l27 232 -69 83 c-38 45 -115 138 -171 205
-57 68 -103 128 -103 133 0 18 120 190 132 190 6 0 91 -21 187 -46z m-1299
-431 c-45 -136 -86 -254 -90 -261 -7 -14 -68 -42 -372 -173 -103 -44 -192 -78
-197 -74 -6 3 -59 76 -119 163 -60 86 -153 220 -206 296 -53 77 -95 141 -93
142 2 2 131 -18 287 -43 l284 -47 113 120 c63 65 153 163 201 216 l87 97 94
-93 94 -94 -83 -249z m1010 2 c87 -104 150 -188 150 -200 -1 -41 -69 -587 -74
-592 -9 -10 -717 -125 -724 -118 -2 2 71 108 162 236 91 128 166 242 166 253
0 12 -13 116 -29 231 -17 116 -31 230 -33 255 l-3 44 100 38 c55 20 108 36
118 35 9 -1 85 -83 167 -182z m-655 131 l110 -32 35 -248 c23 -166 31 -251 25
-261 -52 -74 -349 -492 -356 -499 -8 -9 -82 22 -419 176 -268 123 -249 111
-203 131 21 9 137 60 258 112 120 53 220 97 222 98 1 2 43 122 92 267 50 146
93 271 96 278 6 17 16 16 140 -22z"/>
</g>
</g>
</svg>
